# Blender 3.6.4
# www.blender.org
mtllib Building1.mtl
o Cube
v 1.000000 3.332243 -1.000000
v 1.000000 -3.332243 -1.000000
v 1.000000 3.332243 1.000000
v 1.000000 -3.332243 1.000000
v -1.000000 3.332243 -1.000000
v -1.000000 -3.332243 -1.000000
v -1.000000 3.332243 1.000000
v -1.000000 -3.332243 1.000000
v 0.999301 5.644183 0.990039
v -1.000699 5.644183 0.990039
v 1.000000 5.016801 0.153865
v -1.000000 5.016801 0.153865
v 1.000000 4.066096 0.145334
v -1.000000 4.066096 0.145334
v 1.000000 4.576388 -0.505054
v -1.000000 4.576388 -0.505054
v 1.000000 6.073468 -0.488008
v -1.000000 6.073468 -0.488008
v 1.000000 6.449497 -1.026006
v -1.000000 6.449497 -1.026006
v 1.000000 3.332243 -1.000000
v -1.000000 3.332243 -1.000000
vn -0.0000 1.0000 -0.0000
vn -0.0000 -0.0000 1.0000
vn -1.0000 -0.0000 -0.0000
vn -0.0000 -1.0000 -0.0000
vn 1.0000 -0.0000 -0.0000
vn -0.0000 -0.0000 -1.0000
vn -0.0000 0.0043 1.0000
vn -0.0000 0.7999 -0.6002
vn -0.0000 0.0090 -1.0000
vn -0.0000 0.7867 0.6173
vn -0.0000 -0.0114 0.9999
vn -0.0000 0.8196 0.5729
vn -0.0000 -0.0083 -1.0000
vn 1.0000 0.0001 0.0002
vn -1.0000 -0.0001 -0.0002
vt 0.625000 0.500000
vt 0.875000 0.500000
vt 0.875000 0.750000
vt 0.625000 0.750000
vt 0.375000 0.750000
vt 0.625000 1.000000
vt 0.375000 1.000000
vt 0.375000 0.000000
vt 0.625000 0.000000
vt 0.625000 0.250000
vt 0.375000 0.250000
vt 0.125000 0.500000
vt 0.375000 0.500000
vt 0.125000 0.750000
s 0
usemtl Material
f 1/1/1 5/2/1 7/3/1 3/4/1
f 4/5/2 3/4/2 7/6/2 8/7/2
f 8/8/3 7/9/3 5/10/3 6/11/3
f 6/12/4 2/13/4 4/5/4 8/14/4
f 2/13/5 1/1/5 3/4/5 4/5/5
f 6/11/6 5/10/6 1/1/6 2/13/6
f 7/3/7 3/4/7 9/4/7 10/3/7
f 10/3/8 9/4/8 11/4/8 12/3/8
f 12/3/9 11/4/9 13/4/9 14/3/9
f 14/3/10 13/4/10 15/4/10 16/3/10
f 16/3/11 15/4/11 17/4/11 18/3/11
f 18/3/12 17/4/12 19/4/12 20/3/12
f 20/3/13 19/4/13 21/4/13 22/3/13
f 3/4/14 21/4/14 19/4/14 17/4/14 15/4/14 13/4/14 11/4/14 9/4/14
f 10/3/15 12/3/15 14/3/15 16/3/15 18/3/15 20/3/15 22/3/15 7/3/15
