# Blender 3.6.4
# www.blender.org
mtllib crystal.mtl
o Cube
v 0.599468 1.218174 -0.137265
v 0.604472 -0.732112 -0.799013
v 0.483960 0.782217 1.148148
v 0.873425 -1.147761 0.731986
v 0.001152 2.425656 -0.696057
v -0.931037 -1.229092 -0.388335
v -0.969453 1.468306 -0.048844
v -0.444347 -0.804985 1.158206
v 0.483960 0.782217 1.148148
v 0.103653 2.261261 0.142451
v -0.969453 1.468306 -0.048844
v 0.001152 2.425656 -0.696057
v -0.455328 3.849014 0.861392
v 0.103653 2.261261 0.142451
v 0.483960 0.782217 1.148148
vn 0.1565 0.7574 0.6340
vn -0.2190 0.1342 0.9665
vn -0.9771 0.0128 -0.2124
vn 0.0511 -0.9986 -0.0098
vn 0.9940 0.1071 -0.0218
vn 0.0853 0.0487 -0.9952
vn -0.9039 -0.3739 -0.2080
vn 0.6047 -0.7644 -0.2238
vn -0.9003 -0.4346 0.0248
vn 0.4507 -0.4198 -0.7878
vn -0.6673 -0.1359 0.7323
vn 0.9127 -0.0417 -0.4065
vn -0.1141 0.3762 -0.9195
vn -0.9510 -0.2987 -0.0797
vt 0.625000 0.500000
vt 0.875000 0.500000
vt 0.875000 0.750000
vt 0.625000 0.750000
vt 0.375000 0.750000
vt 0.625000 1.000000
vt 0.375000 1.000000
vt 0.375000 0.000000
vt 0.625000 0.000000
vt 0.625000 0.250000
vt 0.375000 0.250000
vt 0.125000 0.500000
vt 0.375000 0.500000
vt 0.125000 0.750000
vt 0.000000 0.000000
s 0
usemtl Material
f 1/1/1 5/2/1 7/3/1 3/4/1
f 4/5/2 3/4/2 7/6/2 8/7/2
f 8/8/3 7/9/3 5/10/3 6/11/3
f 6/12/4 2/13/4 4/5/4 8/14/4
f 2/13/5 1/1/5 3/4/5 4/5/5
f 6/11/6 5/10/6 1/1/6 2/13/6
f 10/15/7 1/15/7 9/15/7
f 11/15/8 12/15/8 10/15/8
f 10/15/9 12/15/9 1/15/9
f 9/15/10 11/15/10 10/15/10
f 13/15/11 11/15/11 15/15/11
f 15/15/12 11/15/12 14/15/12 13/15/12
f 11/15/13 13/15/13 14/15/13
f 15/15/14 13/15/14 14/15/14
